Naruto_Shippuuden_264 Eng Subbed BZINGAZ in mkv format 60 mb size.            
                                                               
                              Download**Enjoy**Seed


Naruto Shippuuden 264 mkv 60 mb Bzingaz.mkv

Format                           : Matroska
Format version                   : Version 2
File size                        : 58.8 MiB
Duration                         : 23mn 9s
Overall bit rate                 : 355 Kbps

Video
ID                               : 1
Format                           : AVC
Format/Info                      : Advanced Video Codec
Format profile                   : High@L3.0
Format settings, CABAC           : Yes
Format settings, ReFrames        : 4 frames
Format settings, GOP             : M=4, N=5
Codec ID                         : V_MPEG4/ISO/AVC
Duration                         : 23mn 9s
Bit rate                         : 311 Kbps
Width                            : 848 pixels
Height                           : 480 pixels
Display aspect ratio             : 16:9
Frame rate mode                  : Variable
Frame rate                       : 23.976 fps
Color space                      : YUV
Chroma subsampling               : 4:2:0
Bit depth                        : 8 bits
Scan type                        : Progressive
Bits/(Pixel*Frame)               : 0.032
Stream size                      : 49.6 MiB (84%)
Writing library                  : x264 core 122 r2184 5c85e0a


Audio
ID                               : 2
Format                           : Vorbis
Format settings, Floor           : 1
Codec ID                         : A_VORBIS
Duration                         : 23mn 9s
Bit rate mode                    : Variable
Bit rate                         : 48.0 Kbps
Channel(s)                       : 2 channels
Sampling rate                    : 44.1 KHz
Compression mode                 : Lossy
Delay relative to video          : 1mn 5s
Stream size                      : 7.95 MiB (14%)
Writing library                  : libVorbis (Schaufenugget) (20101101 (Schaufenugget))
Language                         : English
Writing application              : Lavc54.15.100

Text
ID                               : 3
Format                           : ASS
Codec ID                         : S_TEXT/ASS
Codec ID/Info                    : Advanced Sub Station Alpha
Compression mode                 : Lossless
Language                         : English